<svg xmlns="http://www.w3.org/2000/svg" xmlns:xlink="http://www.w3.org/1999/xlink" width="100" height="100" viewBox="158 140 59 95" preserveAspectRatio="xMidYMid meet" version="1.0"><defs><clipPath id="ed38774356"><path d="M 158 178 L 217 178 L 217 234.195312 L 158 234.195312 Z M 158 178 " clip-rule="nonzero"/></clipPath><clipPath id="6738ea8da2"><path d="M 158 140.445312 L 217 140.445312 L 217 197 L 158 197 Z M 158 140.445312 " clip-rule="nonzero"/></clipPath><clipPath id="a7e79e25b1"><path d="M 158 216 L 176 216 L 176 234.195312 L 158 234.195312 Z M 158 216 " clip-rule="nonzero"/></clipPath><clipPath id="f55ef232fc"><path d="M 199 140.445312 L 217 140.445312 L 217 159 L 199 159 Z M 199 140.445312 " clip-rule="nonzero"/></clipPath></defs><g clip-path="url(#ed38774356)"><path fill="#ffffff" d="M 158.074219 178.523438 L 193.1875 195.929688 C 194.960938 196.808594 196.664062 197.804688 198.296875 198.921875 C 199.933594 200.039062 201.484375 201.261719 202.945312 202.59375 C 204.410156 203.925781 205.777344 205.355469 207.042969 206.875 C 208.308594 208.398438 209.464844 210 210.507812 211.679688 C 211.550781 213.363281 212.472656 215.109375 213.273438 216.917969 C 214.074219 218.730469 214.746094 220.585938 215.285156 222.492188 C 215.828125 224.394531 216.238281 226.328125 216.511719 228.285156 C 216.785156 230.246094 216.921875 232.21875 216.921875 234.195312 L 181.8125 216.761719 C 180.039062 215.882812 178.335938 214.886719 176.703125 213.769531 C 175.066406 212.65625 173.519531 211.433594 172.054688 210.101562 C 170.59375 208.769531 169.226562 207.347656 167.960938 205.824219 C 166.695312 204.304688 165.542969 202.703125 164.496094 201.023438 C 163.453125 199.34375 162.53125 197.597656 161.730469 195.789062 C 160.929688 193.980469 160.257812 192.125 159.714844 190.222656 C 159.171875 188.320312 158.765625 186.390625 158.488281 184.429688 C 158.214844 182.472656 158.078125 180.503906 158.074219 178.523438 Z M 158.074219 178.523438 " fill-opacity="1" fill-rule="nonzero"/></g><g clip-path="url(#6738ea8da2)"><path fill="#ffffff" d="M 158.074219 140.796875 L 193.1875 158.203125 C 194.960938 159.082031 196.664062 160.078125 198.296875 161.195312 C 199.933594 162.3125 201.480469 163.535156 202.945312 164.867188 C 204.410156 166.199219 205.777344 167.628906 207.042969 169.148438 C 208.308594 170.671875 209.460938 172.273438 210.503906 173.953125 C 211.550781 175.636719 212.472656 177.382812 213.273438 179.195312 C 214.070312 181.003906 214.742188 182.859375 215.285156 184.765625 C 215.828125 186.667969 216.238281 188.601562 216.511719 190.558594 C 216.785156 192.519531 216.921875 194.492188 216.921875 196.46875 L 181.8125 179.035156 C 180.039062 178.15625 178.335938 177.160156 176.703125 176.042969 C 175.066406 174.929688 173.519531 173.707031 172.054688 172.375 C 170.589844 171.046875 169.226562 169.621094 167.960938 168.097656 C 166.695312 166.578125 165.539062 164.976562 164.496094 163.296875 C 163.453125 161.617188 162.53125 159.871094 161.730469 158.0625 C 160.929688 156.253906 160.257812 154.398438 159.714844 152.496094 C 159.171875 150.59375 158.761719 148.664062 158.488281 146.703125 C 158.214844 144.746094 158.078125 142.777344 158.074219 140.796875 Z M 158.074219 140.796875 " fill-opacity="1" fill-rule="nonzero"/></g><g clip-path="url(#a7e79e25b1)"><path fill="#ffffff" d="M 166.707031 216.9375 C 167.273438 216.9375 167.832031 216.992188 168.390625 217.101562 C 168.945312 217.214844 169.484375 217.375 170.007812 217.59375 C 170.53125 217.808594 171.027344 218.078125 171.5 218.390625 C 171.972656 218.707031 172.40625 219.0625 172.808594 219.464844 C 173.207031 219.863281 173.566406 220.300781 173.882812 220.773438 C 174.195312 221.242188 174.460938 221.742188 174.679688 222.265625 C 174.894531 222.789062 175.058594 223.328125 175.167969 223.882812 C 175.28125 224.4375 175.335938 225 175.335938 225.566406 C 175.335938 226.132812 175.28125 226.695312 175.167969 227.25 C 175.058594 227.804688 174.894531 228.347656 174.679688 228.871094 C 174.460938 229.394531 174.195312 229.890625 173.882812 230.359375 C 173.566406 230.832031 173.207031 231.269531 172.808594 231.667969 C 172.40625 232.070312 171.972656 232.425781 171.5 232.742188 C 171.027344 233.058594 170.53125 233.324219 170.007812 233.539062 C 169.484375 233.757812 168.945312 233.921875 168.390625 234.03125 C 167.832031 234.140625 167.273438 234.195312 166.707031 234.195312 C 166.140625 234.195312 165.578125 234.140625 165.023438 234.03125 C 164.464844 233.921875 163.925781 233.757812 163.402344 233.539062 C 162.878906 233.324219 162.382812 233.058594 161.910156 232.742188 C 161.441406 232.425781 161.003906 232.070312 160.601562 231.667969 C 160.203125 231.269531 159.84375 230.832031 159.53125 230.359375 C 159.214844 229.890625 158.949219 229.394531 158.730469 228.871094 C 158.515625 228.347656 158.351562 227.804688 158.242188 227.25 C 158.128906 226.695312 158.074219 226.132812 158.074219 225.566406 C 158.074219 225 158.128906 224.4375 158.242188 223.882812 C 158.351562 223.328125 158.515625 222.789062 158.730469 222.265625 C 158.949219 221.742188 159.214844 221.242188 159.53125 220.773438 C 159.84375 220.300781 160.203125 219.863281 160.601562 219.464844 C 161.003906 219.0625 161.441406 218.707031 161.910156 218.390625 C 162.382812 218.078125 162.878906 217.808594 163.402344 217.59375 C 163.925781 217.375 164.464844 217.214844 165.023438 217.101562 C 165.578125 216.992188 166.140625 216.9375 166.707031 216.9375 Z M 166.707031 216.9375 " fill-opacity="1" fill-rule="nonzero"/></g><g clip-path="url(#f55ef232fc)"><path fill="#ffffff" d="M 208.292969 140.796875 C 208.859375 140.796875 209.421875 140.855469 209.976562 140.964844 C 210.53125 141.074219 211.070312 141.238281 211.59375 141.457031 C 212.117188 141.671875 212.617188 141.9375 213.085938 142.253906 C 213.558594 142.566406 213.996094 142.925781 214.394531 143.324219 C 214.796875 143.726562 215.152344 144.164062 215.46875 144.632812 C 215.78125 145.105469 216.050781 145.601562 216.265625 146.125 C 216.484375 146.648438 216.644531 147.1875 216.757812 147.746094 C 216.867188 148.300781 216.921875 148.863281 216.921875 149.429688 C 216.921875 149.996094 216.867188 150.554688 216.757812 151.113281 C 216.644531 151.667969 216.484375 152.207031 216.265625 152.730469 C 216.050781 153.253906 215.78125 153.75 215.46875 154.222656 C 215.152344 154.695312 214.796875 155.128906 214.394531 155.53125 C 213.996094 155.929688 213.558594 156.289062 213.085938 156.605469 C 212.617188 156.917969 212.117188 157.183594 211.59375 157.402344 C 211.070312 157.617188 210.53125 157.78125 209.976562 157.890625 C 209.421875 158.003906 208.859375 158.058594 208.292969 158.058594 C 207.726562 158.058594 207.164062 158.003906 206.609375 157.890625 C 206.054688 157.78125 205.511719 157.617188 204.988281 157.402344 C 204.464844 157.183594 203.96875 156.917969 203.5 156.605469 C 203.027344 156.289062 202.589844 155.929688 202.191406 155.53125 C 201.789062 155.128906 201.433594 154.695312 201.117188 154.222656 C 200.800781 153.75 200.535156 153.253906 200.320312 152.730469 C 200.101562 152.207031 199.9375 151.667969 199.828125 151.113281 C 199.71875 150.554688 199.664062 149.996094 199.664062 149.429688 C 199.664062 148.863281 199.71875 148.300781 199.828125 147.746094 C 199.9375 147.1875 200.101562 146.648438 200.320312 146.125 C 200.535156 145.601562 200.800781 145.105469 201.117188 144.632812 C 201.433594 144.164062 201.789062 143.726562 202.191406 143.324219 C 202.589844 142.925781 203.027344 142.566406 203.5 142.253906 C 203.96875 141.9375 204.464844 141.671875 204.988281 141.457031 C 205.511719 141.238281 206.054688 141.074219 206.609375 140.964844 C 207.164062 140.855469 207.726562 140.796875 208.292969 140.796875 Z M 208.292969 140.796875 " fill-opacity="1" fill-rule="nonzero"/></g></svg>
