<svg id="visual" viewBox="0 0 900 600" width="900" height="600" xmlns="http://www.w3.org/2000/svg" xmlns:xlink="http://www.w3.org/1999/xlink" version="1.1"><path d="M0 67L39 37L78 43L117 43L157 61L196 67L235 37L274 55L313 61L352 61L391 49L430 55L470 55L509 43L548 43L587 43L626 43L665 73L704 43L743 43L783 37L822 67L861 55L900 61L900 0L861 0L822 0L783 0L743 0L704 0L665 0L626 0L587 0L548 0L509 0L470 0L430 0L391 0L352 0L313 0L274 0L235 0L196 0L157 0L117 0L78 0L39 0L0 0Z" fill="#2563eb"></path><path d="M0 85L39 61L78 73L117 67L157 97L196 85L235 67L274 85L313 79L352 85L391 85L430 73L470 79L509 61L548 79L587 67L626 73L665 109L704 67L743 79L783 55L822 103L861 85L900 85L900 59L861 53L822 65L783 35L743 41L704 41L665 71L626 41L587 41L548 41L509 41L470 53L430 53L391 47L352 59L313 59L274 53L235 35L196 65L157 59L117 41L78 41L39 35L0 65Z" fill="#2560e5"></path><path d="M0 145L39 115L78 103L117 103L157 151L196 121L235 115L274 115L313 109L352 133L391 121L430 121L470 127L509 97L548 127L587 109L626 127L665 145L704 103L743 133L783 109L822 133L861 139L900 139L900 83L861 83L822 101L783 53L743 77L704 65L665 107L626 71L587 65L548 77L509 59L470 77L430 71L391 83L352 83L313 77L274 83L235 65L196 83L157 95L117 65L78 71L39 59L0 83Z" fill="#255ce0"></path><path d="M0 175L39 151L78 145L117 145L157 181L196 157L235 157L274 157L313 145L352 169L391 157L430 163L470 169L509 121L548 157L587 151L626 163L665 181L704 127L743 163L783 139L822 175L861 169L900 163L900 137L861 137L822 131L783 107L743 131L704 101L665 143L626 125L587 107L548 125L509 95L470 125L430 119L391 119L352 131L313 107L274 113L235 113L196 119L157 149L117 101L78 101L39 113L0 143Z" fill="#2459db"></path><path d="M0 325L39 265L78 271L117 247L157 277L196 259L235 259L274 301L313 301L352 307L391 313L430 301L470 289L509 265L548 253L587 319L626 289L665 277L704 253L743 301L783 271L822 313L861 253L900 277L900 161L861 167L822 173L783 137L743 161L704 125L665 179L626 161L587 149L548 155L509 119L470 167L430 161L391 155L352 167L313 143L274 155L235 155L196 155L157 179L117 143L78 143L39 149L0 173Z" fill="#2456d5"></path><path d="M0 343L39 295L78 295L117 271L157 307L196 289L235 283L274 331L313 331L352 325L391 337L430 331L470 313L509 289L548 277L587 337L626 313L665 295L704 283L743 319L783 295L822 337L861 283L900 307L900 275L861 251L822 311L783 269L743 299L704 251L665 275L626 287L587 317L548 251L509 263L470 287L430 299L391 311L352 305L313 299L274 299L235 257L196 257L157 275L117 245L78 269L39 263L0 323Z" fill="#2353d0"></path><path d="M0 367L39 319L78 331L117 295L157 343L196 319L235 313L274 367L313 361L352 349L391 361L430 367L470 349L509 319L548 301L587 367L626 343L665 319L704 313L743 349L783 319L822 361L861 319L900 331L900 305L861 281L822 335L783 293L743 317L704 281L665 293L626 311L587 335L548 275L509 287L470 311L430 329L391 335L352 323L313 329L274 329L235 281L196 287L157 305L117 269L78 293L39 293L0 341Z" fill="#234fca"></path><path d="M0 463L39 427L78 457L117 451L157 457L196 427L235 433L274 457L313 439L352 457L391 445L430 463L470 445L509 415L548 427L587 451L626 445L665 469L704 415L743 439L783 409L822 427L861 457L900 439L900 329L861 317L822 359L783 317L743 347L704 311L665 317L626 341L587 365L548 299L509 317L470 347L430 365L391 359L352 347L313 359L274 365L235 311L196 317L157 341L117 293L78 329L39 317L0 365Z" fill="#224cc5"></path><path d="M0 481L39 457L78 475L117 481L157 481L196 451L235 463L274 487L313 469L352 475L391 463L430 493L470 469L509 433L548 457L587 469L626 469L665 487L704 445L743 469L783 439L822 445L861 481L900 469L900 437L861 455L822 425L783 407L743 437L704 413L665 467L626 443L587 449L548 425L509 413L470 443L430 461L391 443L352 455L313 437L274 455L235 431L196 425L157 455L117 449L78 455L39 425L0 461Z" fill="#2149bf"></path><path d="M0 505L39 481L78 493L117 505L157 499L196 469L235 487L274 511L313 487L352 499L391 481L430 517L470 487L509 457L548 475L587 487L626 487L665 505L704 463L743 487L783 463L822 469L861 499L900 493L900 467L861 479L822 443L783 437L743 467L704 443L665 485L626 467L587 467L548 455L509 431L470 467L430 491L391 461L352 473L313 467L274 485L235 461L196 449L157 479L117 479L78 473L39 455L0 479Z" fill="#2046ba"></path><path d="M0 535L39 523L78 541L117 541L157 529L196 517L235 523L274 535L313 529L352 535L391 511L430 553L470 535L509 505L548 511L587 523L626 535L665 535L704 511L743 523L783 511L822 517L861 529L900 535L900 491L861 497L822 467L783 461L743 485L704 461L665 503L626 485L587 485L548 473L509 455L470 485L430 515L391 479L352 497L313 485L274 509L235 485L196 467L157 497L117 503L78 491L39 479L0 503Z" fill="#1f43b4"></path><path d="M0 601L39 601L78 601L117 601L157 601L196 601L235 601L274 601L313 601L352 601L391 601L430 601L470 601L509 601L548 601L587 601L626 601L665 601L704 601L743 601L783 601L822 601L861 601L900 601L900 533L861 527L822 515L783 509L743 521L704 509L665 533L626 533L587 521L548 509L509 503L470 533L430 551L391 509L352 533L313 527L274 533L235 521L196 515L157 527L117 539L78 539L39 521L0 533Z" fill="#1e40af"></path></svg>